<?xml version="1.0" encoding="UTF-8" standalone="no"?>
<!-- Created with Inkscape (http://www.inkscape.org/) -->

<svg
   width="100px"
   height="100px"
   viewBox="0 0 210 297"
   version="1.1"
   id="svg5"
   inkscape:version="1.1.2 (b8e25be833, 2022-02-05)"
   sodipodi:docname="git.svg"
   xmlns:inkscape="http://www.inkscape.org/namespaces/inkscape"
   xmlns:sodipodi="http://sodipodi.sourceforge.net/DTD/sodipodi-0.dtd"
   xmlns="http://www.w3.org/2000/svg"
   xmlns:svg="http://www.w3.org/2000/svg">
  <sodipodi:namedview
     id="namedview7"
     pagecolor="#505050"
     bordercolor="#eeeeee"
     borderopacity="1"
     inkscape:pageshadow="0"
     inkscape:pageopacity="0"
     inkscape:pagecheckerboard="0"
     inkscape:document-units="mm"
     showgrid="false"
     inkscape:zoom="8"
     inkscape:cx="43.375"
     inkscape:cy="50.25"
     inkscape:window-width="1920"
     inkscape:window-height="1017"
     inkscape:window-x="-8"
     inkscape:window-y="-8"
     inkscape:window-maximized="1"
     inkscape:current-layer="layer1" />
  <defs
     id="defs2" />
  <g
     inkscape:label="Layer 1"
     inkscape:groupmode="layer"
     id="layer1">
    <path
       id="Unnamed"
       fill="none"
       stroke-width="33.838"
       d="m 49.919405,45.644161 c 0,0 -89.369696,89.252969 -89.369696,89.252969 0,0 -11.235989,19.91717 7.350316,33.79102 0,0 121.750041,122.58883 121.750041,122.58883 0,0 15.963534,12.99658 31.085124,-1.72303 0,0 126.05664,-127.8202 126.05664,-127.8202 0,0 14.6683,-12.99656 -0.42108,-27.71504 0,0 -127.3842,-127.3650358 -127.3842,-127.3650358 0,0 -11.65693,-11.6968022 -27.199499,-1.7230536 0,0 -26.746138,27.2925374 -26.746138,27.2925374 0,0 31.085119,31.613983 31.085119,31.613983 0,0 36.686908,-6.498098 30.631768,31.191475 0,0 32.38037,32.068724 32.38037,32.068724 0,0 28.49468,-5.65344 30.66415,23.39361 0,0 -1.29533,18.19526 -20.30249,20.79444 0,0 -13.79399,2.59799 -22.43953,-11.2743 0,0 -2.5903,-7.79786 -2.16958,-19.49467 0,0 -30.21089,-30.31421 -30.21089,-30.31421 0,0 0,82.30013 0,82.30013 0,0 24.18813,12.99619 4.3066,37.26706 0,0 -12.07788,12.99658 -31.08513,-1.75376 0,0 -6.022734,-7.34272 -5.18086,-21.21656 0,0 5.18086,-9.51976 11.656909,-13.87385 0,0 0,-85.3218 0,-85.3218 0,0 -16.837768,-7.79785 -11.656909,-30.346444 0,0 -32.801265,-31.613976 -32.801265,-31.613976 z"
       style="stroke:#fb4f28;stroke-width:0px; fill: #fb4f28; " />
  </g>
</svg>
