<?xml version="1.0" encoding="UTF-8" standalone="no"?>
<!-- Created with Inkscape (http://www.inkscape.org/) -->

<svg
   width="557px"
   height="540px"
   viewBox="0 0 210 297"
   version="1.1"
   id="svg5"
   inkscape:version="1.1.2 (b8e25be833, 2022-02-05)"
   sodipodi:docname="postgresql.svg"
   xmlns:inkscape="http://www.inkscape.org/namespaces/inkscape"
   xmlns:sodipodi="http://sodipodi.sourceforge.net/DTD/sodipodi-0.dtd"
   xmlns="http://www.w3.org/2000/svg"
   xmlns:svg="http://www.w3.org/2000/svg">
  <sodipodi:namedview
     id="namedview7"
     pagecolor="#505050"
     bordercolor="#eeeeee"
     borderopacity="1"
     inkscape:pageshadow="0"
     inkscape:pageopacity="0"
     inkscape:pagecheckerboard="0"
     inkscape:document-units="mm"
     showgrid="false"
     inkscape:zoom="1.4805976"
     inkscape:cx="280.62992"
     inkscape:cy="272.86279"
     inkscape:window-width="1920"
     inkscape:window-height="1017"
     inkscape:window-x="-8"
     inkscape:window-y="-8"
     inkscape:window-maximized="1"
     inkscape:current-layer="g858" />
  <defs
     id="defs2" />
  <g
     inkscape:label="Layer 1"
     inkscape:groupmode="layer"
     id="layer1">
    <g
       id="g858"
       transform="matrix(0.56568918,0,0,0.5316044,-47.524202,0.60551947)">
      <path
         id="Selection #3"
         fill="#ffffff"
         stroke="#ffffff"
         stroke-width="1"
         d="m 213,175 c 5.28,-2.47 7.03,-3.2 13,-2.96 2.42,0.1 4.69,0.43 7,1.18 9.86,3.21 10.96,11.37 1,15.55 -6.29,2.65 -13.39,0.43 -17.58,-4.81 -2.34,-2.92 -2.86,-5.41 -3.42,-8.96 z" />
      <path
         id="Selection #2"
         fill="#ffffff"
         stroke="#ffffff"
         stroke-width="1"
         d="m 404.39778,168.44 c -3.52,-0.45 -9.82,-1.04 -12.36,2.07 -4.08,5 5.07,11.56 9.36,12.27 8.55,1.41 15.33,-4.21 13.75,-8.68 -1.35,-3.82 -7.29,-4.99 -10.75,-5.66 z" />
      <path
         id="Selection #1"
         fill="#ffffff"
         stroke="#ffffff"
         stroke-width="1"
         d="m 227,341 c -6.47,-0.3 -14.9,-1.72 -21,-3.86 -3.29,-1.16 -7.64,-3.95 -11,-2.33 -3.41,1.64 -10.21,10.03 -13.07,13.19 0,0 -22.8,26 -22.8,26 C 146.55,388.62 134.54,403.33 113,397.25 96.16,392.51 82.6,372.81 74.78,358 55.52,321.52 43.1,281.91 33.13,242 c 0,0 -7.73,-34 -7.73,-34 -5.1,-25.33 -9.7,-46.91 -9.4,-73 0,0 0.91,-10 0.91,-10 C 19.45,90.21 30.86,57.39 62,38.06 c 8.62,-5.35 18.19,-8.99 28,-11.43 10.48,-2.61 18.44,-3 29,-3.72 3.45,-0.23 5.37,-0.99 9,-0.73 20.79,1.48 36.53,3.21 57,8.05 0,0 19,5.44 19,5.44 2.02,0.67 8.9,3.17 10.58,3.19 2.49,0.02 6.22,-2.46 8.42,-3.71 4.84,-2.75 9.78,-5.12 15,-7.09 13.51,-5.08 31.6,-7.22 46,-7.06 0,0 24,2.42 24,2.42 3.5,0.55 10.98,2.19 14,1.95 0,0 22,-5.37 22,-5.37 14.09,-2.87 33.68,-5.16 48,-5 0,0 10,0.91 10,0.91 33.75,2.32 62.71,11.85 89,33.84 19.2,16.06 29.96,30.63 30,56.25 0,0 0,18 0,18 -0.15,12.23 -5.52,39.59 -8.63,52 -7.41,29.65 -18.31,61.49 -31.63,89 0,0 -23.54,45 -23.54,45 0,0 -7.89,13 -7.89,13 -0.94,1.49 -2.85,4.12 -2.87,5.9 -0.07,5.63 14.47,6.55 18.56,6.93 0,0 45,-4.83 45,-4.83 7.61,0.08 14.72,2.96 13.8,12 -1.05,10.3 -14.52,20.27 -22.8,25.14 -21.56,12.68 -42.29,16.15 -67,15.86 -5.65,-0.07 -12.71,-1.07 -18,-3 0,0 -2.85,28 -2.85,28 0,0 -6.88,53 -6.88,53 -2.51,17.41 -5.29,37.55 -16.03,52 -9.98,13.42 -23.57,20 -39.24,24.42 -26.73,7.54 -53.41,7.27 -71.25,-17.42 -13.52,-18.7 -14.33,-36.03 -15.84,-58 0,0 -0.91,-12 -0.91,-12 0,0 -1,-22 -1,-22 0,0 0,-41 0,-41 -6.78,4.54 -10.11,7.82 -18,11.51 -16.67,7.81 -37.29,8.03 -55,4.07 -8.84,-1.99 -23.89,-8.26 -24.89,-18.58 -0.88,-9.03 6.21,-14.05 13.89,-16.64 10,-3.39 25.84,-5.06 34,-10.33 5.38,-3.46 11.55,-11.58 15,-17.03 z m 209,-25 c 9.83,-13.46 23.18,-39.49 30.31,-55 13.82,-30.11 25.95,-61.58 33.11,-94 4.84,-21.91 9.48,-47.68 6.28,-70 C 503.35,80.58 492.46,69.88 480,59.8 450.72,36.13 418.76,29.57 382,30 c -6.68,0.08 -28.61,2.25 -34,5 0,0 28,16.43 28,16.43 22.74,16.29 40.51,37.35 54.28,61.57 6.66,11.71 15.56,29.41 15.72,43 0,0 -5,51 -5,51 0,0 0,13 0,13 0,0 4,42 4,42 0.15,12.82 -1.61,26.05 -6.45,38 -2.33,5.75 -7.52,10.77 -2.55,16 z M 429,146 C 426.46,131.97 411.67,108.29 402.79,97 374,60.42 332.35,36.07 285,36 267.09,35.97 249.15,37.82 233,46.32 199.51,63.94 183.73,99.55 176.6,135 c -1.4,6.96 -3.45,20.11 -3.6,27 0,0 16,-6.94 16,-6.94 11.71,-4.56 22.37,-7.2 35,-7.06 29.68,0.35 38.34,21.83 42.57,47 4,23.87 5.65,49.42 -1,73 -5.27,18.67 -20.01,45.45 -22.57,62 18.49,-3.15 33.78,13.11 34,31 0,0 0,78 0,78 0,0 1,18 1,18 0,0 3.21,31 3.21,31 4.51,21.22 17.18,39.73 40.79,40 19.58,0.22 45.67,-7.32 57.23,-24 7.74,-11.17 9.7,-26.87 11.85,-40 0,0 9.64,-75 9.64,-75 0,0 2.19,-21 2.19,-21 0.95,-13.82 -0.47,-23.69 12.09,-33.47 3.72,-2.89 6.66,-4.01 11,-5.53 0,0 -18.75,-29 -18.75,-29 0,0 -13.5,-26 -13.5,-26 0,0 -10.5,-20 -10.5,-20 0,0 -7.4,-16 -7.4,-16 -10.84,-25.44 -24.23,-67.39 6.15,-85.12 3.7,-2.16 7.85,-4.16 12,-5.21 7.41,-1.89 15.37,-2.76 23,-2.67 0,0 12,1 12,1 z M 202,51 C 181.84,42.16 144.16,36.74 122,37 112.42,37.12 99.23,39.22 90,41.86 82.51,44.01 74.55,47.47 68,51.7 49.37,63.73 40.38,81.09 35.13,102 c -9.34,37.18 -1.75,71.48 5.67,108 0,0 7.83,33 7.83,33 0,0 12.37,43 12.37,43 8.92,27.03 18.59,54.3 34.67,78 5.68,8.37 15.98,20.92 27.33,19.8 9.09,-0.9 15.61,-8.26 21.08,-14.8 0,0 24.2,-28 24.2,-28 2.42,-2.74 12.73,-13.33 13.38,-16 0.71,-2.85 -1.93,-5.14 -3.68,-7 -4.37,-4.66 -6.26,-6.44 -9.75,-12 -7.77,-12.37 -13.65,-30.25 -12.72,-45 0,0 2.32,-23 2.32,-23 0,0 1.17,-32 1.17,-32 0,0 -1.16,-19 -1.16,-19 0,0 0,-10 0,-10 0,0 0,-8 0,-8 0.25,-18.95 5.68,-47.18 12.21,-65 5,-13.63 10.61,-25.09 18.99,-37 0,0 12.96,-16 12.96,-16 z m 229,110 c -4.3,-0.57 -5.47,-0.94 -10,-1 0,0 -9,0 -9,0 -19.1,0.03 -33.91,6.58 -34,28 -0.16,37.25 29.68,76.76 44,110 0,0 2,0 2,0 3.61,-10.84 5.98,-17.3 6,-29 0,0 0,-9 0,-9 0,0 -4,-52 -4,-52 0,0 5,-47 5,-47 z m -218,2.29 c -10.24,1.69 -20.83,5.32 -30,10.2 -2.99,1.59 -8.28,4.5 -9.88,7.6 -0.87,2.15 -0.12,9.03 0,11.91 0,0 0,13 0,13 0,0 0.7,7 0.7,7 0,0 -0.82,10 -0.82,10 0,0 -1.17,22 -1.17,22 0,0 -1.82,16 -1.82,16 -0.53,23.4 11.85,47.87 32.99,58.74 5.38,2.77 12.96,5.55 19,6.08 8.17,0.73 7.92,-4.64 10,-10.82 0,0 11.58,-29 11.58,-29 12.71,-29.8 13.78,-51.21 9.42,-83 -1.77,-12.9 -3.59,-32.02 -17,-38.03 -5.68,-2.55 -16.75,-2.27 -23,-1.68 z M 504,346 c -16.39,3.08 -35.43,6.04 -52,2.91 -11.07,-2.1 -18.3,-11.42 -28.89,-2.49 -4.87,4.09 -8.67,18.14 -1.05,21.1 5.39,2.09 16.8,1.49 22.94,1.48 12.81,-0.02 30.63,-3.88 42,-9.78 5.98,-3.11 13.84,-7.1 17,-13.22 z m -324,37 c 6.09,6.78 19.28,7.99 28,8 0,0 9,0 9,0 15.26,-0.18 32.01,-8.8 41.1,-21 9.02,-12.11 0.4,-25.5 -9.1,-25.71 -4.74,-0.1 -7.46,3.44 -10.25,6.71 -4.58,5.4 -9.39,12.23 -14.75,16.67 -9.68,8.03 -31.35,12.47 -44,15.33 z" />
      <path
         id="Selection"
         fill="#000000"
         stroke="#000000"
         stroke-width="0"
         d="m 249,416 c -20.04,10.26 -54.28,8.89 -75,0.94 -3.92,-1.51 -8.62,-4.07 -12,-6.54 -1.57,-1.16 -4.97,-4.41 -6.58,-4.8 -2.46,-0.6 -8.89,4.19 -11.42,5.42 -6.89,3.35 -15.35,5.14 -23,4.97 C 101.33,415.54 85.61,403.09 74.13,388 56.1,364.3 39.93,323.73 31.28,295 31.28,295 18.13,249 18.13,249 18.13,249 10,214 10,214 4.16,185.81 -0.34,164.13 0,135 0,135 0.91,125 0.91,125 3.58,86.89 15.97,50.23 49,27.75 57.12,22.21 69.57,16.26 79,13.44 97.45,7.92 114.9,6.78 134,7 c 14.14,0.17 39.07,4.4 53,7.87 0,0 17,4.55 17,4.55 1.9,0.56 6.97,2.41 8.58,2.38 2.33,-0.04 7.97,-3.37 10.42,-4.49 5.3,-2.43 14.36,-5.65 20,-7.16 19.04,-5.07 34.6,-4.37 54,-4.15 0,0 26,2.53 26,2.53 0,0 16,-3.53 16,-3.53 10.55,-2.18 27.43,-4.98 38,-5 0,0 25,0 25,0 6.06,0.01 12.01,0.87 18,1.73 33.8,4.83 65.62,19.01 90,43.27 18.01,17.93 27.69,32.88 28,59 0.45,38.44 -4.7,63.33 -15.42,100 -6.09,20.81 -17.41,50.53 -26.84,70 0,0 -15.05,30 -15.05,30 0,0 -8.69,16 -8.69,16 0,0 12,-1.43 12,-1.43 7.92,-1.15 16.01,-3.47 24,-3.57 6.37,-0.07 12.14,0.04 18,3 12.35,6.23 14.06,14.57 14,27 -0.01,2.44 0.04,4.62 -0.63,7 -1.21,4.23 -5.24,10.56 -8.04,13.96 -17.41,21.18 -55.31,34.72 -82.33,35.04 -3.71,0.04 -16.14,-0.68 -18.69,1.02 -2.59,1.73 -2.28,5.25 -2.31,7.98 0,0 -1,18 -1,18 0,0 -2.72,27 -2.72,27 -4.36,33.42 -14.43,69.15 -45.28,87.55 -12.06,7.19 -33.92,14.38 -48,14.45 0,0 -18,0 -18,0 -23.11,-0.04 -38.61,-15.39 -48.24,-35 -9.19,-18.7 -12.41,-39.46 -13.85,-60 0,0 -0.91,-10 -0.91,-10 0,0 -1,-19 -1,-19 0,0 0,-17 0,-17 z m 197,-85 c 0,0 21.74,-38 21.74,-38 20.28,-39.3 39.36,-84.51 48.06,-128 2.28,-11.42 6.06,-31.76 6.2,-43 0.15,-13.43 0.66,-28.34 -4.45,-41 C 512.57,68.67 500.22,56.07 490,47.8 462.02,25.18 434.19,17.32 399,14.91 c 0,0 -8,-0.87 -8,-0.87 0,0 -17,0.96 -17,0.96 -8.74,0.11 -28.16,3.56 -37,5.65 0,0 -16,4 -16,4 0,0 -23,-3.48 -23,-3.48 -16.8,-1.61 -29.37,-1.03 -46,2.09 -7.1,1.33 -18.52,5.47 -25,8.71 -2.48,1.24 -9.29,5.61 -11.42,5.87 -2.29,0.28 -9.06,-2.35 -11.58,-3.17 0,0 -22,-6.02 -22,-6.02 -26.46,-6.07 -38.26,-6.69 -65,-6.65 -8.71,0.01 -20.55,1.9 -29,4.15 -7.88,2.1 -18.01,6.14 -25,10.3 C 32.01,54.89 19.47,86.53 16.04,121 c 0,0 0,8 0,8 0,0 -1.04,10 -1.04,10 0,0 0,4 0,4 0,0 0.91,10 0.91,10 1.33,19.36 5.16,38.02 9.09,57 8.54,41.29 21.41,87.28 38,126 8.91,20.79 25.05,52.58 47,61.24 26.31,10.39 42.46,-14.2 57.13,-31.24 0,0 13.15,-15 13.15,-15 2.46,-2.79 12.23,-13.99 14.72,-15.19 3.16,-1.53 6.92,0.77 10,1.85 9.58,3.33 11.8,2.69 21,4.34 -4.75,5.49 -9.58,12.95 -16,16.33 0,0 -35,10.29 -35,10.29 -7.45,3.14 -12.71,7.61 -11.89,16.38 1.02,11.02 15.56,16.89 24.89,19.12 15.94,3.8 35.51,4.47 51,-1.58 8.68,-3.4 14.42,-7.49 22,-12.54 0,0 0,34 0,34 0,0 0.96,12 0.96,12 0,0 0,12 0,12 0,0 1,13 1,13 0.95,21.82 2.64,41.48 15.61,60 18.1,25.86 47,25.78 74.43,17.71 15.01,-4.42 27.94,-10.87 37.52,-23.71 13.22,-17.7 16.04,-46.35 18.63,-68 0,0 7.85,-65 7.85,-65 8.3,3.03 17.27,3.1 26,3 23.92,-0.28 49.12,-7.8 68,-22.67 6.75,-5.32 18.08,-16.87 12.15,-26.29 -1.62,-2.57 -4.27,-4.49 -7.15,-5.39 -2.29,-0.72 -5.58,-0.69 -8,-0.64 0,0 -42,4.98 -42,4.98 -6.77,-0.16 -13.6,-1.9 -20,-3.99 z" />
      <path
         style="opacity:0.603;fill:#336791;stroke-width:0.675403;fill-opacity:1"
         d="M 117.78176,368.8241 C 106.1058,362.94563 90.809521,341.31769 78.801153,313.70805 61.997316,275.07267 42.044379,204.4511 35.774852,161.42044 31.328477,130.90293 34.628673,102.81734 45.218968,81.048353 58.993997,52.732958 88.124936,37.929741 130.01507,37.958255 c 23.23483,0.01582 53.74891,4.699762 72.834,11.180104 l 4.61831,1.568147 -6.93378,8.058143 c -8.62036,10.018222 -13.58666,17.572774 -19.53315,29.713136 -8.91191,18.194575 -14.81839,39.802965 -17.53851,64.163275 -0.76136,6.81851 -0.81356,31.05986 -0.088,40.86188 0.66554,8.99097 -0.31624,32.87057 -2.03358,49.46219 -1.2438,12.01664 -1.33934,14.86221 -0.67333,20.05544 2.14166,16.69983 9.52773,32.23986 21.00598,44.19588 3.13124,3.26156 5.41357,6.21584 5.41357,7.00737 0,0.77025 -2.43585,4.03841 -5.57207,7.47601 -15.24134,16.70599 -37.22366,40.07386 -40.29782,42.83778 -4.77989,4.29754 -8.90222,6.16835 -14.24097,6.46289 -3.94572,0.21768 -4.8764,-0.003 -9.19399,-2.1764 z"
         id="path1212"
         transform="matrix(0.97226537,0,0,1.0346039,-1.1504516,-1.1390415)" />
      <path
         style="opacity:0.603;fill:#336791;fill-opacity:1;stroke-width:0.675403"
         d="m 327.57043,510.22768 c -10.65969,-1.24698 -19.55776,-6.38861 -26.08644,-15.07369 -7.30374,-9.71612 -9.70163,-17.38869 -12.16332,-38.9193 -1.75083,-15.31315 -1.82919,-17.57223 -2.22574,-64.16328 -0.40221,-47.25638 -0.44191,-48.36723 -1.85216,-51.83373 -2.31803,-5.69787 -4.56963,-9.07174 -8.59457,-12.87836 -5.44599,-5.15059 -11.27015,-7.6927 -18.7429,-8.18086 l -5.94384,-0.38827 2.60986,-7.76714 c 1.43542,-4.27192 5.63833,-14.60558 9.3398,-22.9637 11.10135,-25.06742 13.40579,-32.29564 15.05366,-47.21815 2.06875,-18.73382 -1.14945,-50.86695 -6.77032,-67.60035 -3.93042,-11.70093 -11.33335,-21.15211 -19.85068,-25.34299 -6.33559,-3.11738 -12.56014,-4.34931 -22.03138,-4.3603 -13.44571,-0.0156 -24.6715,2.47197 -41.03073,9.09216 l -8.94909,3.62148 v -2.59565 c 0,-3.67894 2.98349,-20.83011 5.02311,-28.87638 10.91313,-43.052019 34.5953,-72.179916 67.1703,-82.616135 12.13203,-3.886802 20.06441,-4.888362 39.24808,-4.955552 18.86837,-0.06609 25.02123,0.612928 39.67374,4.378283 37.65985,9.677719 71.90289,34.880272 94.91386,69.855724 5.66825,8.61541 13.69762,24.15686 14.43376,27.93758 0.41367,2.12457 0.34358,2.2409 -1.0782,1.78964 -0.83633,-0.26545 -5.87985,-0.46903 -11.20781,-0.45242 -15.87278,0.0495 -26.43917,2.4405 -36.10031,8.169 -5.35212,3.1735 -11.37319,9.34513 -13.81148,14.15686 -8.27006,16.32018 -4.86595,40.67315 10.07078,72.04625 8.37075,17.58191 29.90604,55.3519 39.75313,69.72157 5.16776,7.54121 9.28476,13.79386 9.14889,13.89477 -0.13586,0.10091 -1.69218,0.719 -3.45848,1.37354 -3.95053,1.46393 -10.36855,6.11527 -12.73191,9.22722 -4.27286,5.62625 -5.62221,10.284 -6.34563,21.90403 -0.631,10.13571 -2.53808,25.84545 -7.77554,64.05176 -6.67731,48.70968 -8.19206,56.27961 -13.33454,66.63871 -4.41444,8.89254 -13.40138,16.51723 -25.66369,21.7736 -11.5173,4.937 -29.6065,7.85067 -40.69021,6.55408 z"
         id="path1288"
         transform="matrix(0.97226537,0,0,1.0346039,-1.1504516,-1.1390415)" />
      <path
         style="opacity:0.603;fill:#336791;fill-opacity:1;stroke-width:0.675403"
         d="m 448.87751,303.87608 c -0.79513,-2.07208 -0.36372,-4.03606 1.69401,-7.71189 4.82041,-8.61096 7.64189,-18.89062 8.71283,-31.74394 0.63843,-7.6624 0.51442,-10.24794 -1.34197,-27.98039 -2.67839,-25.58428 -2.6357,-31.8204 0.42063,-61.4438 2.2081,-21.40191 2.40949,-24.78561 1.71595,-28.83007 -1.21823,-7.10415 -3.36694,-12.94647 -8.67247,-23.58036 -10.79976,-21.64598 -27.65634,-43.638537 -44.72894,-58.357256 -10.5448,-9.090938 -16.84467,-13.383109 -31.48782,-21.452999 -10.22022,-5.632396 -13.51939,-7.746597 -12.61213,-8.082214 0.67576,-0.249981 4.24507,-0.928661 7.9318,-1.508178 28.38414,-4.461709 59.86014,-2.22482 85.38758,6.068199 25.04143,8.135125 52.93312,28.503689 60.64379,44.286545 3.9794,8.145389 4.53618,11.548527 4.50972,27.564053 -0.0292,17.69964 -2.43635,33.53627 -8.82865,58.08466 -10.23268,39.2966 -34.0199,92.62433 -56.71377,127.1446 -3.11365,4.73626 -5.78705,8.61139 -5.94089,8.61139 -0.15383,0 -0.46419,-0.48075 -0.68967,-1.06835 z"
         id="path1327"
         transform="matrix(0.97226537,0,0,1.0346039,-1.1504516,-1.1390415)" />
      <path
         style="opacity:0.603;fill:#336791;fill-opacity:1;stroke-width:0.675403"
         d="m 438.36273,356.25223 c -1.67036,-0.34972 -3.77723,-1.39567 -4.72782,-2.34711 -3.84098,-3.84443 -1.18232,-14.1523 4.70201,-18.23014 4.5937,-3.18344 8.82549,-3.12044 17.71246,0.2637 3.98426,1.51719 9.45503,3.10232 12.15725,3.5225 9.18445,1.42812 34.74226,0.1158 47.80122,-2.45446 1.45154,-0.2857 1.23614,0.0888 -1.53495,2.66865 -6.52751,6.07702 -23.30619,12.87318 -38.65153,15.6557 -7.06705,1.28145 -32.72421,1.91239 -37.45864,0.92116 z"
         id="path1366"
         transform="matrix(0.97226537,0,0,1.0346039,-1.1504516,-1.1390415)" />
      <path
         style="opacity:0.603;fill:#336791;fill-opacity:1;stroke-width:0.675403"
         d="m 200.25697,376.78847 c -5.65649,-1.18368 -12.45331,-4.24601 -11.06332,-4.98462 0.51275,-0.27246 4.69333,-1.32238 9.29018,-2.33315 10.91094,-2.39914 22.21675,-6.00693 28.08843,-8.96326 4.92207,-2.47822 10.57299,-7.69005 20.49668,-18.90403 3.72427,-4.20851 5.562,-5.74764 7.58713,-6.35438 8.89045,-2.66365 17.70893,8.63731 14.11541,18.089 -2.26473,5.95669 -11.572,14.24328 -21.2363,18.90742 -9.88506,4.77068 -14.56239,5.65189 -29.65692,5.58743 -8.51925,-0.0364 -14.49742,-0.39071 -17.62129,-1.04441 z"
         id="path1405"
         transform="matrix(0.97226537,0,0,1.0346039,-1.1504516,-1.1390415)" />
      <path
         style="opacity:0.603;fill:#336791;fill-opacity:1;stroke-width:0.675403"
         d="m 220.92,313.32548 c -10.37623,-3.06681 -18.49265,-7.8198 -25.77482,-15.09379 -7.7777,-7.76898 -13.317,-17.41095 -16.13805,-28.0907 -2.09614,-7.93541 -2.37453,-14.1622 -1.13146,-25.30742 2.3768,-21.31021 3.00483,-39.36392 2.05665,-59.12145 l -0.42251,-8.80393 2.75231,-2.48654 c 5.14413,-4.64742 20.61858,-11.08357 32.96082,-13.70912 7.15593,-1.52227 20.86877,-1.56481 25.95576,-0.0805 9.75082,2.84512 15.16216,11.51204 18.16279,29.0899 2.69437,15.78378 3.56147,26.48278 3.18018,39.23969 -0.58471,19.56335 -2.68917,27.31686 -15.67372,57.74695 -4.35895,10.21547 -8.36558,20.05365 -8.90363,21.86263 -1.45821,4.90271 -3.39178,6.51235 -7.77007,6.46834 -1.96711,-0.0198 -6.13152,-0.79109 -9.25425,-1.71404 z m 23.13531,-129.9007 c 5.58092,-2.70695 7.36926,-7.59194 4.17086,-11.39303 -4.18582,-4.97457 -15.46263,-6.93681 -24.03133,-4.1816 l -4.82732,1.55219 0.42624,2.66556 c 0.23443,1.46606 0.86325,3.51065 1.39737,4.54353 1.32318,2.55875 6.55687,7.06183 9.26653,7.97295 3.5232,1.18466 9.88257,0.64234 13.59765,-1.1596 z"
         id="path1444"
         transform="matrix(0.97226537,0,0,1.0346039,-1.1504516,-1.1390415)" />
      <path
         style="opacity:0.603;fill:#336791;fill-opacity:1;stroke-width:0.675403"
         d="m 432.0047,280.79877 c -2.00282,-3.99332 -7.37199,-13.7951 -11.93148,-21.78174 -15.90581,-27.86141 -22.76163,-42.52347 -26.74088,-57.1888 -1.55185,-5.71929 -1.81017,-8.03734 -1.86857,-16.76782 -0.0623,-9.30696 0.0631,-10.42058 1.54091,-13.6905 3.05716,-6.76447 9.92755,-11.53315 19.93938,-13.83975 3.63748,-0.83804 27.65194,-1.1591 29.50138,-0.39443 0.95934,0.39665 0.80926,2.72944 -1.45569,22.626 l -2.52532,22.18375 1.95675,23.6391 c 2.18282,26.37021 2.45899,40.10064 0.95095,47.27821 -1.21671,5.79098 -4.41848,15.19656 -5.17309,15.19656 -0.30407,0 -2.19153,-3.26726 -4.19434,-7.26058 z M 425.15995,176.6217 c 3.28282,-2.02889 4.79392,-5.39892 3.57407,-7.97079 -1.7941,-3.78259 -12.23576,-6.68566 -19.87621,-5.52613 -3.64774,0.55359 -6.31766,2.87967 -6.31766,5.50404 0,2.41775 3.75179,6.67371 7.62509,8.64977 3.86239,1.97048 11.26851,1.64603 14.99471,-0.65689 z"
         id="path1483"
         transform="matrix(0.97226537,0,0,1.0346039,-1.1504516,-1.1390415)" />
    </g>
  </g>
</svg>
